# xmcd
#
# Track frame offsets:
#	150
#	13233
#	25593
#	45946
#	61484
#	82781
#	106972
#	130719
#	151978
#	165646
#	182250
#	199476
#
# Disc length: 3017 seconds
# Revision: 3
# Processed by: cddbd v1.5.2PL0 Copyright (c) Steve Scherf et al.
# Submitted via: dBpowerAMP V12.0
#
DISCID=880bc70c
DTITLE=Knut Reiersrud and Mighty Sam McClain - Tears of the World
DYEAR=2015
DGENRE=Blues
TTITLE0=Tears of the World
TTITLE1=Please Mr. Foreman
TTITLE2=Jewels
TTITLE3=Living in the Key of G
TTITLE4=Que Sera Sera
TTITLE5=Friends
TTITLE6=Too Proud
TTITLE7=Apples Don't Fall Far from the Tree
TTITLE8=I Wish I Had a Girl Like You
TTITLE9=Somebody Help Me
TTITLE10=Things Aint What They Used to Be
TTITLE11=Promised Land
EXTD=
EXTT0=
EXTT1=
EXTT2=
EXTT3=
EXTT4=
EXTT5=
EXTT6=
EXTT7=
EXTT8=
EXTT9=
EXTT10=
EXTT11=
PLAYORDER=
